g cockpitGlass
v -0.43534228 -1.4519157 -0.435342
v -0.43534228 -1.4519155 0.6353426
v 0.43534228 -1.4519155 0.6353426
v 0.43534228 -1.4519157 -0.435342
v -0.43534228 -0.09353354 0.63534236
v -0.43534228 -1.4519155 0.6353426
v -0.43534228 -1.4519157 -0.435342
v -0.43534228 -0.09353372 -0.43534222
v 0.43534228 -1.4519157 -0.435342
v 0.43534228 -0.09353354 0.63534236
v 0.43534228 -1.4519155 0.6353426
v 0.43534228 -0.09353372 -0.43534222
vt 2.644876 1.8398434
vt 2.6448755 1.8398434
vt 2.644875 2.071084
vt 2.644876 2.071084
vt 2.6448755 1.8398434
vt 2.6448755 1.8398434
vt 2.644876 1.8398434
vt 2.644876 1.8398434
vt 2.644876 2.071084
vt 2.644875 2.071084
vt 2.644875 2.071084
vt 2.644876 2.071084
vn -0.6946882 -0.4452757 -0.56492287
vn -0.69468826 -0.4452755 0.564923
vn 0.69468826 -0.4452755 0.564923
vn 0.6946882 -0.4452757 -0.56492287
vn -0.6946882 0.44527566 0.56492287
vn -0.69468826 -0.4452755 0.564923
vn -0.6946882 -0.4452757 -0.56492287
vn -0.69468826 0.4452755 -0.564923
vn 0.6946882 -0.4452757 -0.56492287
vn 0.6946882 0.44527566 0.56492287
vn 0.69468826 -0.4452755 0.564923
vn 0.69468826 0.4452755 -0.564923
g cockpitGlass_0
f 3/3/3 2/2/2 1/1/1
f 4/4/4 3/3/3 1/1/1
f 7/7/7 6/6/6 5/5/5
f 8/8/8 7/7/7 5/5/5
f 9/9/9 7/7/7 8/8/8
f 5/5/5 6/6/6 10/10/10
f 5/5/5 10/10/10 8/8/8
f 6/6/6 11/11/11 10/10/10
f 11/11/11 9/9/9 12/12/12
f 12/12/12 9/9/9 8/8/8
f 10/10/10 12/12/12 8/8/8
f 10/10/10 11/11/11 12/12/12
