g PropellerR
v -0 0.043032162 1.4395733
v -1.4395733 0.043031927 -1.8172736E-07
v -0 0.043031693 -1.4395732
v 1.4395733 0.043031927 3.4242234E-07
v 0.9253397 -0.04303189 1.1027774
v -1.102777 -0.04303192 0.9253398
v 1.102777 -0.043032218 -0.92533994
v -0.92534 -0.043032248 -1.1027771
v 0.00053074583 0.04303221 1.4535549
v 1.440104 0.043031976 0.013981917
v 0.00053074583 0.04303174 -1.4255916
v -1.4390426 0.043031976 0.013981391
v 0.92587054 -0.043031838 1.116759
v 1.1033077 -0.04303217 -0.9113583
v -1.1022463 -0.043031868 0.93932146
v -0.9248092 -0.0430322 -1.0887955
vt 0.68829364 0.09324725
vt 0.68829364 0.3994788
vt 0.99452496 0.3994788
vt 0.99452496 0.09324725
vt 0.99452496 0.09324725
vt 0.68829364 0.09324725
vt 0.99452496 0.3994788
vt 0.68829364 0.3994788
vt 0.68829364 0.09324725
vt 0.99452496 0.09324725
vt 0.99452496 0.3994788
vt 0.68829364 0.3994788
vt 0.99452496 0.09324725
vt 0.99452496 0.3994788
vt 0.68829364 0.09324725
vt 0.68829364 0.3994788
vn -0 1 0
vn -0 1 0
vn -0 1 0
vn -0 1 0
vn -0 1 0
vn -0 1 0
vn -0 1 0
vn -0 1 0
vn -0 -1 0
vn -0 -1 0
vn -0 -1 0
vn -0 -1 0
vn -0 -1 0
vn -0 -1 0
vn -0 -1 0
vn -0 -1 0
g PropellerR_0
f 3/3/3 2/2/2 1/1/1
f 1/1/1 4/4/4 3/3/3
f 7/7/7 6/6/6 5/5/5
f 7/7/7 8/8/8 6/6/6
f 11/11/11 10/10/10 9/9/9
f 9/9/9 12/12/12 11/11/11
f 15/15/15 14/14/14 13/13/13
f 16/16/16 14/14/14 15/15/15
