g PropellerL
v -1.4395732 0.04303183 6.3834214E-08
v -3.176945E-07 0.04303173 -1.4395732
v 1.4395733 0.043032024 9.906571E-08
v 6.684338E-08 0.043032125 1.4395733
v 0.9253401 -0.043031853 1.102777
v -1.102777 -0.04303202 0.92533994
v -0.9253398 -0.043032285 -1.1027769
v 1.102777 -0.043032117 -0.9253401
v 1.4331017 0.043032072 0.012405102
v -0.00647195 0.04303178 -1.4271681
v -1.4460448 0.04303188 0.012405067
v -0.0064715645 0.043032173 1.4519783
v 0.9188684 -0.043031804 1.115182
v 1.0963054 -0.043032072 -0.91293514
v -0.9318115 -0.043032236 -1.0903718
v -1.1092486 -0.043031964 0.93774486
vt 0.99452496 0.09324725
vt 0.68829364 0.09324725
vt 0.68829364 0.3994788
vt 0.99452496 0.3994788
vt 0.68829364 0.39799842
vt 0.99452496 0.39799842
vt 0.99452496 0.091766894
vt 0.68829364 0.091766894
vt 0.68829364 0.3994788
vt 0.68829364 0.09324725
vt 0.99452496 0.09324725
vt 0.99452496 0.3994788
vt 0.68829364 0.39799842
vt 0.68829364 0.091766894
vt 0.99452496 0.091766894
vt 0.99452496 0.39799842
vn -0 1 0
vn -0 1 0
vn -0 1 0
vn -0 1 0
vn -0 1 0
vn -0 1 0
vn -0 1 0
vn -0 1 0
vn -0 -1 0
vn -0 -1 0
vn -0 -1 0
vn -0 -1 0
vn -0 -1 0
vn -0 -1 0
vn -0 -1 0
vn -0 -1 0
g PropellerL_0
f 3/3/3 2/2/2 1/1/1
f 1/1/1 4/4/4 3/3/3
f 7/7/7 6/6/6 5/5/5
f 5/5/5 8/8/8 7/7/7
f 11/11/11 10/10/10 9/9/9
f 9/9/9 12/12/12 11/11/11
f 15/15/15 14/14/14 13/13/13
f 13/13/13 16/16/16 15/15/15
